<svg width="865" height="36" viewBox="0 0 865 36" fill="none" xmlns="http://www.w3.org/2000/svg">
<path d="M864 19V20H865V19H864ZM7.99994 19V18H6.99994V19H7.99994ZM7.29283 35.7071C7.68336 36.0976 8.31652 36.0976 8.70705 35.7071L15.071 29.3431C15.4615 28.9526 15.4615 28.3195 15.071 27.9289C14.6805 27.5384 14.0473 27.5384 13.6568 27.9289L7.99994 33.5858L2.34308 27.9289C1.95256 27.5384 1.3194 27.5384 0.928871 27.9289C0.538347 28.3195 0.538347 28.9526 0.928871 29.3431L7.29283 35.7071ZM863 0V19H865V0L863 0ZM864 18L7.99994 18V20L864 20V18ZM6.99994 19V35H8.99994V19H6.99994Z" fill="black"/>
</svg>
